<?xml version="1.0" encoding="UTF-8"?>
<svg xmlns="http://www.w3.org/2000/svg" xmlns:xlink="http://www.w3.org/1999/xlink" width="15113pt" height="7736pt" viewBox="0 0 15113 7736" version="1.1">
<defs>
<clipPath id="clip1">
  <path d="M 0.5 0 L 15112.5 0 L 15112.5 7736 L 0.5 7736 Z M 0.5 0 "/>
</clipPath>
<clipPath id="clip2">
  <path d="M 7426 2895 L 8456 2895 L 8456 4384 L 7426 4384 Z M 7426 2895 "/>
</clipPath>
<clipPath id="clip3">
  <path d="M 7556.269531 3112.21875 C 7556.269531 3081.21875 7537.671875 3068.820313 7512.871094 3068.820313 L 7426.070313 3068.820313 L 7426.070313 2895.21875 L 7624.472656 2895.21875 C 7717.472656 2895.21875 7760.871094 2920.019531 7760.871094 3019.21875 L 7760.871094 3707.621094 L 7853.871094 3707.621094 C 7891.070313 3707.621094 7940.671875 3695.21875 7965.472656 3664.21875 L 8213.472656 3323.121094 L 8442.871094 3323.121094 L 8157.769531 3713.820313 C 8108.171875 3775.820313 8077.171875 3794.421875 8077.171875 3794.421875 L 8077.171875 3800.621094 C 8077.171875 3800.621094 8114.371094 3813.019531 8145.371094 3881.21875 L 8300.371094 4166.519531 C 8318.972656 4197.519531 8337.570313 4209.921875 8393.371094 4209.921875 L 8455.371094 4209.921875 L 8455.371094 4383.519531 L 8306.570313 4383.519531 C 8207.371094 4383.519531 8176.371094 4364.921875 8132.972656 4284.320313 L 7940.769531 3930.820313 C 7915.972656 3893.621094 7872.570313 3887.421875 7835.371094 3887.421875 L 7754.769531 3887.421875 L 7754.769531 4383.519531 L 7550.171875 4383.519531 Z M 7556.269531 3112.21875 "/>
</clipPath>
<clipPath id="clip4">
  <path d="M 8511 2895 L 9727 2895 L 9727 4378 L 8511 4378 Z M 8511 2895 "/>
</clipPath>
<clipPath id="clip5">
  <path d="M 8641.371094 3112.21875 C 8641.371094 3081.21875 8622.769531 3068.820313 8597.972656 3068.820313 L 8511.171875 3068.820313 L 8511.171875 2895.21875 L 8709.570313 2895.21875 C 8802.570313 2895.21875 8845.972656 2932.421875 8845.972656 3025.421875 L 8845.972656 3440.921875 C 8845.972656 3490.519531 8839.769531 3527.71875 8839.769531 3527.71875 L 8845.972656 3527.71875 C 8889.371094 3422.320313 9025.769531 3292.019531 9236.671875 3292.019531 C 9484.671875 3292.019531 9596.371094 3428.421875 9596.371094 3701.320313 L 9596.371094 4160.21875 C 9596.371094 4191.21875 9614.972656 4203.621094 9639.769531 4203.621094 L 9726.570313 4203.621094 L 9726.570313 4377.21875 L 9528.171875 4377.21875 C 9435.171875 4377.21875 9391.769531 4340.019531 9391.769531 4240.820313 L 9391.769531 3744.820313 C 9391.769531 3596.019531 9360.769531 3478.121094 9193.371094 3478.121094 C 9032.171875 3478.121094 8901.972656 3589.71875 8858.570313 3738.621094 C 8846.171875 3782.019531 8839.972656 3831.621094 8839.972656 3881.21875 L 8839.972656 4377.320313 L 8635.371094 4377.320313 Z M 8641.371094 3112.21875 "/>
</clipPath>
<clipPath id="clip6">
  <path d="M 9832 3279 L 10850 3279 L 10850 4390 L 9832 4390 Z M 9832 3279 "/>
</clipPath>
<clipPath id="clip7">
  <path d="M 10476.871094 3707.621094 L 10520.269531 3707.621094 L 10520.269531 3695.21875 C 10520.269531 3509.21875 10452.070313 3440.921875 10284.671875 3440.921875 C 10235.070313 3440.921875 10111.070313 3453.320313 10111.070313 3521.519531 L 10111.070313 3583.519531 L 9918.871094 3583.519531 L 9918.871094 3478.121094 C 9918.871094 3304.519531 10185.46875 3279.71875 10284.769531 3279.71875 C 10625.769531 3279.71875 10718.871094 3459.519531 10718.871094 3695.21875 L 10718.871094 4147.921875 C 10718.871094 4178.921875 10737.46875 4191.320313 10762.269531 4191.320313 L 10849.070313 4191.320313 L 10849.070313 4364.921875 L 10656.871094 4364.921875 C 10563.871094 4364.921875 10526.671875 4321.519531 10526.671875 4240.921875 C 10526.671875 4203.71875 10532.871094 4178.921875 10532.871094 4178.921875 L 10526.671875 4178.921875 C 10526.671875 4178.921875 10439.871094 4389.71875 10191.871094 4389.71875 C 10012.070313 4389.71875 9832.171875 4278.121094 9832.171875 4067.21875 C 9838.171875 3732.421875 10303.269531 3707.621094 10476.871094 3707.621094 Z M 10241.269531 4228.519531 C 10414.871094 4228.519531 10526.46875 4048.71875 10526.46875 3893.621094 L 10526.46875 3856.421875 L 10476.871094 3856.421875 C 10321.871094 3856.421875 10048.96875 3862.621094 10048.96875 4061.019531 C 10042.769531 4147.921875 10111.070313 4228.519531 10241.269531 4228.519531 Z M 10241.269531 4228.519531 "/>
</clipPath>
<clipPath id="clip8">
  <path d="M 10929 2895 L 11395 2895 L 11395 4372 L 10929 4372 Z M 10929 2895 "/>
</clipPath>
<clipPath id="clip9">
  <path d="M 11065.96875 3112.21875 C 11065.96875 3081.21875 11047.371094 3068.820313 11022.570313 3068.820313 L 10929.570313 3068.820313 L 10929.570313 2895.21875 L 11127.96875 2895.21875 C 11220.96875 2895.21875 11264.371094 2932.421875 11264.371094 3031.621094 L 11264.371094 4154.121094 C 11264.371094 4185.121094 11282.96875 4197.519531 11307.769531 4197.519531 L 11394.570313 4197.519531 L 11394.570313 4371.121094 L 11196.171875 4371.121094 C 11103.171875 4371.121094 11059.769531 4333.921875 11059.769531 4234.71875 L 11059.769531 3112.21875 Z M 11065.96875 3112.21875 "/>
</clipPath>
<clipPath id="clip10">
  <path d="M 11487 3019 L 12102 3019 L 12102 4372 L 11487 4372 Z M 11487 3019 "/>
</clipPath>
<clipPath id="clip11">
  <path d="M 11624.070313 3471.921875 L 11487.671875 3471.921875 L 11487.671875 3310.71875 L 11630.269531 3310.71875 L 11630.269531 3019.21875 L 11828.671875 3019.21875 L 11828.671875 3310.71875 L 12082.871094 3310.71875 L 12082.871094 3471.921875 L 11828.671875 3471.921875 L 11828.671875 3955.621094 C 11828.671875 4166.421875 11977.46875 4191.320313 12051.871094 4191.320313 C 12082.871094 4191.320313 12101.46875 4185.121094 12101.46875 4185.121094 L 12101.46875 4364.921875 C 12101.46875 4364.921875 12076.671875 4371.121094 12033.269531 4371.121094 C 11896.871094 4371.121094 11630.171875 4327.71875 11630.171875 3974.21875 L 11630.171875 3471.921875 Z M 11624.070313 3471.921875 "/>
</clipPath>
<clipPath id="clip12">
  <path d="M 12219 2889 L 12685 2889 L 12685 4372 L 12219 4372 Z M 12219 2889 "/>
</clipPath>
<clipPath id="clip13">
  <path d="M 12349.570313 3527.71875 C 12349.570313 3496.71875 12330.96875 3484.320313 12306.171875 3484.320313 L 12219.371094 3484.320313 L 12219.371094 3310.71875 L 12417.769531 3310.71875 C 12510.769531 3310.71875 12554.171875 3347.921875 12554.171875 3447.121094 L 12554.171875 4154.121094 C 12554.171875 4185.121094 12572.769531 4197.519531 12597.570313 4197.519531 L 12684.371094 4197.519531 L 12684.371094 4371.121094 L 12485.96875 4371.121094 C 12392.96875 4371.121094 12349.570313 4333.921875 12349.570313 4234.71875 Z M 12355.769531 2889.019531 L 12535.570313 2889.019531 L 12535.570313 3099.820313 L 12355.769531 3099.820313 Z M 12355.769531 2889.019531 "/>
</clipPath>
<clipPath id="clip14">
  <path d="M 6601 2287 L 13528 2287 L 13528 5091 L 6601 5091 Z M 6601 2287 "/>
</clipPath>
<clipPath id="clip15">
  <path d="M 13112.199219 2287.398438 L 6917.5 2287.398438 L 6911.300781 2361.800781 L 13112.199219 2361.800781 C 13298.199219 2361.800781 13453.199219 2516.800781 13453.199219 2702.898438 L 13453.199219 4675 C 13453.199219 4861 13298.199219 5016.101563 13112.199219 5016.101563 L 6626.101563 5016.101563 C 6619.898438 5040.898438 6613.699219 5065.699219 6601.300781 5090.5 L 13112.199219 5090.5 C 13341.601563 5090.5 13527.699219 4904.5 13527.699219 4675 L 13527.699219 2709.101563 C 13527.699219 2473.5 13341.699219 2287.398438 13112.199219 2287.398438 Z M 13112.199219 2287.398438 "/>
</clipPath>
<clipPath id="clip16">
  <path d="M 1448 2349 L 1889 2349 L 1889 3392 L 1448 3392 Z M 1448 2349 "/>
</clipPath>
<clipPath id="clip17">
  <path d="M 1783.300781 2349.5 L 1448.398438 2392.898438 L 1572.398438 3391.300781 L 1888.699219 3354.101563 Z M 1783.300781 2349.5 "/>
</clipPath>
<clipPath id="clip18">
  <path d="M 1860 1574 L 6826 1574 L 6826 6399 L 1860 6399 Z M 1860 1574 "/>
</clipPath>
<clipPath id="clip19">
  <path d="M 6762.601563 1661.101563 C 6713 1605.300781 6644.800781 1574.300781 6564.199219 1574.300781 L 2124.300781 1574.300781 C 2043.699219 1574.300781 1975.5 1605.300781 1925.898438 1661.101563 C 1876.300781 1716.898438 1851.5 1785.101563 1863.898438 1865.699219 L 2180.101563 4910.699219 C 2198.699219 5090.5 2347.5 5313.800781 2496.300781 5406.800781 L 4065.101563 6330.800781 C 4139.5 6374.199219 4238.699219 6399 4344.101563 6399 C 4449.5 6399 4548.699219 6374.199219 4623.101563 6330.800781 L 6191.898438 5406.800781 C 6346.898438 5320 6489.5 5090.5 6508.101563 4910.699219 L 6824.300781 1865.800781 C 6830.800781 1791.300781 6812.199219 1716.898438 6762.601563 1661.101563 Z M 5292.898438 4997.5 C 5249.5 5034.699219 5193.699219 5053.300781 5125.5 5053.300781 C 5057.300781 5053.300781 5001.5 5040.898438 4964.300781 5009.898438 C 4920.898438 4978.898438 4883.699219 4941.699219 4858.898438 4898.300781 C 4827.898438 4848.699219 4803.101563 4805.300781 4778.300781 4768.101563 L 4207.800781 3887.5 L 3810.898438 4265.800781 L 3810.898438 4761.898438 C 3810.898438 4861.101563 3786.101563 4935.5 3742.699219 4985.199219 C 3699.300781 5034.898438 3637.300781 5059.601563 3569.101563 5059.601563 C 3525.699219 5059.601563 3488.5 5047.199219 3451.300781 5028.601563 C 3414.101563 5010 3383.101563 4979 3364.5 4941.800781 C 3352.101563 4910.800781 3339.699219 4873.601563 3339.699219 4836.398438 C 3333.5 4799.199219 3333.5 4737.199219 3333.5 4662.800781 L 3333.5 2883 C 3333.5 2783.800781 3352.101563 2709.398438 3395.5 2665.898438 C 3438.898438 2616.300781 3494.699219 2591.5 3569.101563 2591.5 C 3643.5 2591.5 3699.300781 2616.300781 3742.699219 2665.898438 C 3792.300781 2709.300781 3810.898438 2783.699219 3810.898438 2883 L 3810.898438 3720.199219 L 4759.601563 2728 C 4803 2678.398438 4846.398438 2647.398438 4877.398438 2622.601563 C 4908.398438 2597.800781 4951.800781 2591.601563 5007.601563 2591.601563 C 5075.800781 2591.601563 5131.601563 2610.199219 5175 2653.601563 C 5218.398438 2697 5237 2746.601563 5237 2802.398438 C 5237 2870.601563 5199.800781 2945 5125.398438 3013.199219 L 4536.300781 3571.300781 L 5212.199219 4538.699219 C 5261.800781 4606.898438 5292.800781 4662.699219 5317.601563 4712.300781 C 5342.398438 4761.898438 5354.800781 4811.5 5354.800781 4861.101563 C 5355 4916.898438 5336.398438 4960.300781 5292.898438 4997.5 Z M 5292.898438 4997.5 "/>
</clipPath>
<clipPath id="clip20">
  <path d="M 7488 5692 L 7768 5692 L 7768 6009 L 7488 6009 Z M 7488 5692 "/>
</clipPath>
<clipPath id="clip21">
  <path d="M 7767.078125 5847.105469 C 7767.078125 5927.707031 7717.480469 6008.308594 7612.078125 6008.308594 L 7488.078125 6008.308594 L 7488.078125 5692.007813 L 7612.078125 5692.007813 C 7717.480469 5692.007813 7767.078125 5766.40625 7767.078125 5847.105469 Z M 7543.878906 5952.507813 L 7605.878906 5952.507813 C 7680.277344 5952.507813 7705.078125 5902.90625 7705.078125 5847.105469 C 7705.078125 5797.507813 7674.078125 5747.90625 7605.878906 5747.90625 L 7543.878906 5747.90625 Z M 7543.878906 5952.507813 "/>
</clipPath>
<clipPath id="clip22">
  <path d="M 7928.277344 5692.007813 L 7990.277344 5692.007813 L 7990.277344 6008.308594 L 7928.277344 6008.308594 Z M 7928.277344 5692.007813 "/>
</clipPath>
<clipPath id="clip23">
  <path d="M 8145 5673 L 8437 5673 L 8437 6009 L 8145 6009 Z M 8145 5673 "/>
</clipPath>
<clipPath id="clip24">
  <path d="M 8393.378906 5766.40625 C 8374.777344 5747.808594 8343.777344 5735.40625 8312.777344 5735.40625 C 8244.578125 5735.40625 8201.179688 5785.007813 8201.179688 5853.207031 C 8201.179688 5902.808594 8232.179688 5958.605469 8312.777344 5958.605469 C 8337.578125 5958.605469 8356.179688 5952.40625 8380.980469 5933.808594 L 8380.980469 5878.007813 L 8300.378906 5878.007813 L 8300.378906 5822.207031 L 8436.777344 5822.207031 L 8436.777344 5952.40625 C 8405.777344 5989.605469 8368.578125 6008.207031 8312.777344 6008.207031 C 8194.980469 6008.207031 8145.378906 5927.605469 8145.378906 5847.007813 C 8145.378906 5760.207031 8201.179688 5673.40625 8312.777344 5673.40625 C 8356.179688 5673.40625 8399.578125 5692.007813 8430.578125 5723.007813 Z M 8393.378906 5766.40625 "/>
</clipPath>
<clipPath id="clip25">
  <path d="M 8604.179688 5692.007813 L 8666.179688 5692.007813 L 8666.179688 6008.308594 L 8604.179688 6008.308594 Z M 8604.179688 5692.007813 "/>
</clipPath>
<clipPath id="clip26">
  <path d="M 8833.679688 5692.007813 L 9094.078125 5692.007813 L 9094.078125 5747.808594 L 8833.679688 5747.808594 Z M 8932.878906 5747.808594 L 8994.878906 5747.808594 L 8994.878906 6008.308594 L 8932.878906 6008.308594 Z M 8932.878906 5747.808594 "/>
</clipPath>
<clipPath id="clip27">
  <path d="M 9218 5692 L 9566 5692 L 9566 6009 L 9218 6009 Z M 9218 5692 "/>
</clipPath>
<clipPath id="clip28">
  <path d="M 9472.378906 5946.308594 L 9304.878906 5946.308594 L 9280.078125 6008.308594 L 9218.078125 6008.308594 L 9360.679688 5692.007813 L 9422.679688 5692.007813 L 9565.277344 6008.308594 L 9503.277344 6008.308594 Z M 9385.480469 5760.207031 L 9329.679688 5896.605469 L 9447.480469 5896.605469 Z M 9385.480469 5760.207031 "/>
</clipPath>
<clipPath id="clip29">
  <path d="M 9707.980469 5692.007813 L 9769.980469 5692.007813 L 9769.980469 5952.507813 L 9707.980469 5952.507813 Z M 9707.980469 5952.507813 L 9931.179688 5952.507813 L 9931.179688 6008.308594 L 9707.980469 6008.308594 Z M 9707.980469 5952.507813 "/>
</clipPath>
<clipPath id="clip30">
  <path d="M 10284 5692 L 10763 5692 L 10763 6009 L 10284 6009 Z M 10284 5692 "/>
</clipPath>
<clipPath id="clip31">
  <path d="M 10638.078125 6008.308594 L 10588.480469 6008.308594 L 10551.28125 5909.105469 L 10520.28125 5809.90625 L 10489.28125 5909.105469 L 10452.078125 6008.308594 L 10402.480469 6008.308594 L 10284.679688 5692.007813 L 10352.878906 5692.007813 L 10427.28125 5921.507813 L 10501.679688 5692.007813 L 10538.878906 5692.007813 L 10619.480469 5921.507813 L 10693.878906 5692.007813 L 10762.078125 5692.007813 Z M 10638.078125 6008.308594 "/>
</clipPath>
<clipPath id="clip32">
  <path d="M 10873 5692 L 11221 5692 L 11221 6009 L 10873 6009 Z M 10873 5692 "/>
</clipPath>
<clipPath id="clip33">
  <path d="M 11127.980469 5946.308594 L 10960.578125 5946.308594 L 10935.78125 6008.308594 L 10873.78125 6008.308594 L 11016.378906 5692.007813 L 11078.378906 5692.007813 L 11220.980469 6008.308594 L 11158.980469 6008.308594 Z M 11047.378906 5760.207031 L 10991.578125 5896.605469 L 11109.378906 5896.605469 Z M 11047.378906 5760.207031 "/>
</clipPath>
<clipPath id="clip34">
  <path d="M 11363.578125 5692.007813 L 11425.578125 5692.007813 L 11425.578125 5952.507813 L 11363.578125 5952.507813 Z M 11363.578125 5952.507813 L 11586.878906 5952.507813 L 11586.878906 6008.308594 L 11363.578125 6008.308594 Z M 11363.578125 5952.507813 "/>
</clipPath>
<clipPath id="clip35">
  <path d="M 11748.078125 5692.007813 L 11810.078125 5692.007813 L 11810.078125 5952.507813 L 11748.078125 5952.507813 Z M 11748.078125 5952.507813 L 11971.28125 5952.507813 L 11971.28125 6008.308594 L 11748.078125 6008.308594 Z M 11748.078125 5952.507813 "/>
</clipPath>
<clipPath id="clip36">
  <path d="M 12126.28125 5692.007813 L 12361.980469 5692.007813 L 12361.980469 5747.808594 L 12126.28125 5747.808594 Z M 12126.28125 5747.808594 L 12182.078125 5747.808594 L 12182.078125 5822.308594 L 12126.28125 5822.308594 Z M 12126.28125 5822.308594 L 12355.78125 5822.308594 L 12355.78125 5878.105469 L 12126.28125 5878.105469 Z M 12126.28125 5878.105469 L 12182.078125 5878.105469 L 12182.078125 5946.308594 L 12126.28125 5946.308594 Z M 12126.28125 5946.308594 L 12361.980469 5946.308594 L 12361.980469 6008.308594 L 12126.28125 6008.308594 Z M 12126.28125 5946.308594 "/>
</clipPath>
<clipPath id="clip37">
  <path d="M 12529.378906 5692.007813 L 12789.78125 5692.007813 L 12789.78125 5747.808594 L 12529.378906 5747.808594 Z M 12628.578125 5747.808594 L 12690.578125 5747.808594 L 12690.578125 6008.308594 L 12628.578125 6008.308594 Z M 12628.578125 5747.808594 "/>
</clipPath>
</defs>
<g id="surface1">
<g clip-path="url(#clip1)" clip-rule="nonzero">
<rect x="0" y="0" width="15113" height="7736" style="fill:rgb(100%,100%,100%);fill-opacity:1;stroke:none;"/>
</g>
<g clip-path="url(#clip2)" clip-rule="nonzero">
<g clip-path="url(#clip3)" clip-rule="nonzero">
<path style=" stroke:none;fill-rule:nonzero;fill:rgb(30.195618%,15.686035%,42.744446%);fill-opacity:1;" d="M 7421.070313 4388.519531 L 8460.371094 4388.519531 L 8460.371094 2890.21875 L 7421.070313 2890.21875 Z M 7421.070313 4388.519531 "/>
</g>
</g>
<g clip-path="url(#clip4)" clip-rule="nonzero">
<g clip-path="url(#clip5)" clip-rule="nonzero">
<path style=" stroke:none;fill-rule:nonzero;fill:rgb(30.195618%,15.686035%,42.744446%);fill-opacity:1;" d="M 8506.171875 4382.320313 L 9731.570313 4382.320313 L 9731.570313 2890.21875 L 8506.171875 2890.21875 Z M 8506.171875 4382.320313 "/>
</g>
</g>
<g clip-path="url(#clip6)" clip-rule="nonzero">
<g clip-path="url(#clip7)" clip-rule="nonzero">
<path style=" stroke:none;fill-rule:nonzero;fill:rgb(30.195618%,15.686035%,42.744446%);fill-opacity:1;" d="M 9827.171875 4394.71875 L 10854.070313 4394.71875 L 10854.070313 3274.71875 L 9827.171875 3274.71875 Z M 9827.171875 4394.71875 "/>
</g>
</g>
<g clip-path="url(#clip8)" clip-rule="nonzero">
<g clip-path="url(#clip9)" clip-rule="nonzero">
<path style=" stroke:none;fill-rule:nonzero;fill:rgb(30.195618%,15.686035%,42.744446%);fill-opacity:1;" d="M 10924.570313 4376.121094 L 11399.570313 4376.121094 L 11399.570313 2890.21875 L 10924.570313 2890.21875 Z M 10924.570313 4376.121094 "/>
</g>
</g>
<g clip-path="url(#clip10)" clip-rule="nonzero">
<g clip-path="url(#clip11)" clip-rule="nonzero">
<path style=" stroke:none;fill-rule:nonzero;fill:rgb(30.195618%,15.686035%,42.744446%);fill-opacity:1;" d="M 11482.671875 4376.121094 L 12106.46875 4376.121094 L 12106.46875 3014.21875 L 11482.671875 3014.21875 Z M 11482.671875 4376.121094 "/>
</g>
</g>
<g clip-path="url(#clip12)" clip-rule="nonzero">
<g clip-path="url(#clip13)" clip-rule="nonzero">
<path style=" stroke:none;fill-rule:nonzero;fill:rgb(30.195618%,15.686035%,42.744446%);fill-opacity:1;" d="M 12214.371094 4376.121094 L 12689.371094 4376.121094 L 12689.371094 2884.019531 L 12214.371094 2884.019531 Z M 12214.371094 4376.121094 "/>
</g>
</g>
<g clip-path="url(#clip14)" clip-rule="nonzero">
<g clip-path="url(#clip15)" clip-rule="nonzero">
<path style=" stroke:none;fill-rule:nonzero;fill:rgb(30.195618%,15.686035%,42.744446%);fill-opacity:1;" d="M 6596.300781 5095.5 L 13532.699219 5095.5 L 13532.699219 2282.398438 L 6596.300781 2282.398438 Z M 6596.300781 5095.5 "/>
</g>
</g>
<g clip-path="url(#clip16)" clip-rule="nonzero">
<g clip-path="url(#clip17)" clip-rule="nonzero">
<path style=" stroke:none;fill-rule:nonzero;fill:rgb(93.725586%,54.118347%,10.588074%);fill-opacity:1;" d="M 1443.398438 3396.300781 L 1893.699219 3396.300781 L 1893.699219 2344.5 L 1443.398438 2344.5 Z M 1443.398438 3396.300781 "/>
</g>
</g>
<g clip-path="url(#clip18)" clip-rule="nonzero">
<g clip-path="url(#clip19)" clip-rule="nonzero">
<path style=" stroke:none;fill-rule:nonzero;fill:rgb(30.195618%,15.686035%,42.744446%);fill-opacity:1;" d="M 1855.738281 6404 L 6830.550781 6404 L 6830.550781 1569.300781 L 1855.738281 1569.300781 Z M 1855.738281 6404 "/>
</g>
</g>
<g clip-path="url(#clip20)" clip-rule="nonzero">
<g clip-path="url(#clip21)" clip-rule="nonzero">
<path style=" stroke:none;fill-rule:nonzero;fill:rgb(93.725586%,54.118347%,10.588074%);fill-opacity:1;" d="M 7483.078125 6013.308594 L 7772.078125 6013.308594 L 7772.078125 5687.007813 L 7483.078125 5687.007813 Z M 7483.078125 6013.308594 "/>
</g>
</g>
<g clip-path="url(#clip22)" clip-rule="nonzero">
<path style=" stroke:none;fill-rule:nonzero;fill:rgb(93.725586%,54.118347%,10.588074%);fill-opacity:1;" d="M 7923.277344 6013.308594 L 7995.277344 6013.308594 L 7995.277344 5687.007813 L 7923.277344 5687.007813 Z M 7923.277344 6013.308594 "/>
</g>
<g clip-path="url(#clip23)" clip-rule="nonzero">
<g clip-path="url(#clip24)" clip-rule="nonzero">
<path style=" stroke:none;fill-rule:nonzero;fill:rgb(93.725586%,54.118347%,10.588074%);fill-opacity:1;" d="M 8140.378906 6013.207031 L 8441.777344 6013.207031 L 8441.777344 5668.40625 L 8140.378906 5668.40625 Z M 8140.378906 6013.207031 "/>
</g>
</g>
<g clip-path="url(#clip25)" clip-rule="nonzero">
<path style=" stroke:none;fill-rule:nonzero;fill:rgb(93.725586%,54.118347%,10.588074%);fill-opacity:1;" d="M 8599.179688 6013.308594 L 8671.179688 6013.308594 L 8671.179688 5687.007813 L 8599.179688 5687.007813 Z M 8599.179688 6013.308594 "/>
</g>
<g clip-path="url(#clip26)" clip-rule="nonzero">
<path style=" stroke:none;fill-rule:nonzero;fill:rgb(93.725586%,54.118347%,10.588074%);fill-opacity:1;" d="M 8828.679688 6013.308594 L 9099.078125 6013.308594 L 9099.078125 5687.007813 L 8828.679688 5687.007813 Z M 8828.679688 6013.308594 "/>
</g>
<g clip-path="url(#clip27)" clip-rule="nonzero">
<g clip-path="url(#clip28)" clip-rule="nonzero">
<path style=" stroke:none;fill-rule:nonzero;fill:rgb(93.725586%,54.118347%,10.588074%);fill-opacity:1;" d="M 9213.078125 6013.308594 L 9570.277344 6013.308594 L 9570.277344 5687.007813 L 9213.078125 5687.007813 Z M 9213.078125 6013.308594 "/>
</g>
</g>
<g clip-path="url(#clip29)" clip-rule="nonzero">
<path style=" stroke:none;fill-rule:nonzero;fill:rgb(93.725586%,54.118347%,10.588074%);fill-opacity:1;" d="M 9702.980469 6013.308594 L 9936.179688 6013.308594 L 9936.179688 5687.007813 L 9702.980469 5687.007813 Z M 9702.980469 6013.308594 "/>
</g>
<g clip-path="url(#clip30)" clip-rule="nonzero">
<g clip-path="url(#clip31)" clip-rule="nonzero">
<path style=" stroke:none;fill-rule:nonzero;fill:rgb(93.725586%,54.118347%,10.588074%);fill-opacity:1;" d="M 10279.679688 6013.308594 L 10767.078125 6013.308594 L 10767.078125 5687.007813 L 10279.679688 5687.007813 Z M 10279.679688 6013.308594 "/>
</g>
</g>
<g clip-path="url(#clip32)" clip-rule="nonzero">
<g clip-path="url(#clip33)" clip-rule="nonzero">
<path style=" stroke:none;fill-rule:nonzero;fill:rgb(93.725586%,54.118347%,10.588074%);fill-opacity:1;" d="M 10868.78125 6013.308594 L 11225.980469 6013.308594 L 11225.980469 5687.007813 L 10868.78125 5687.007813 Z M 10868.78125 6013.308594 "/>
</g>
</g>
<g clip-path="url(#clip34)" clip-rule="nonzero">
<path style=" stroke:none;fill-rule:nonzero;fill:rgb(93.725586%,54.118347%,10.588074%);fill-opacity:1;" d="M 11358.578125 6013.308594 L 11591.878906 6013.308594 L 11591.878906 5687.007813 L 11358.578125 5687.007813 Z M 11358.578125 6013.308594 "/>
</g>
<g clip-path="url(#clip35)" clip-rule="nonzero">
<path style=" stroke:none;fill-rule:nonzero;fill:rgb(93.725586%,54.118347%,10.588074%);fill-opacity:1;" d="M 11743.078125 6013.308594 L 11976.28125 6013.308594 L 11976.28125 5687.007813 L 11743.078125 5687.007813 Z M 11743.078125 6013.308594 "/>
</g>
<g clip-path="url(#clip36)" clip-rule="nonzero">
<path style=" stroke:none;fill-rule:nonzero;fill:rgb(93.725586%,54.118347%,10.588074%);fill-opacity:1;" d="M 12121.28125 6013.308594 L 12366.980469 6013.308594 L 12366.980469 5687.007813 L 12121.28125 5687.007813 Z M 12121.28125 6013.308594 "/>
</g>
<g clip-path="url(#clip37)" clip-rule="nonzero">
<path style=" stroke:none;fill-rule:nonzero;fill:rgb(93.725586%,54.118347%,10.588074%);fill-opacity:1;" d="M 12524.378906 6013.308594 L 12794.78125 6013.308594 L 12794.78125 5687.007813 L 12524.378906 5687.007813 Z M 12524.378906 6013.308594 "/>
</g>
</g>
</svg>
